#N canvas 0 38 1728 1051 12;
#X obj 526 547 hsl 162 19 0 1 0 0 empty empty mc 10 10 0 12 #606060 #ffffff #ffffff 0 1;
#X obj 768 547 hsl 162 19 0 1 0 0 empty empty mc 10 10 0 12 #606060 #ffffff #ffffff 0 1;
#N canvas 390 528 450 300 split 0;
#X obj 37 37 inlet~;
#X obj 37 191 outlet~;
#X obj 107 191 outlet~;
#X obj 191 37 inlet~;
#X obj 38 166 +~;
#X obj 106 166 +~;
#X connect 0 0 4 0;
#X connect 0 0 5 0;
#X connect 3 0 4 1;
#X connect 3 0 5 1;
#X connect 4 0 1 0;
#X connect 5 0 2 0;
#X coords 0 300 1 299 85 60 0;
#X restore 490 475 pd split;
#X f 35;
#X obj 732 871 *~;
#X obj 768 871 hsl 162 19 0 1 0 0 empty empty volume 10 10 0 12 #dfdfdf #ffffff #000000 0 1;
#X obj 490 287 *~;
#X obj 526 287 hsl 162 19 0 1 0 0 empty empty volume 10 10 0 12 #dfdfdf #ffffff #000000 0 1;
#N canvas 237 275 450 300 split 0;
#X obj 37 37 inlet~;
#X obj 37 61 outlet~;
#X obj 107 61 outlet~;
#X obj 163 35 inlet~;
#X connect 0 0 1 0;
#X connect 0 0 2 0;
#X connect 3 0 2 0;
#X connect 3 0 1 0;
#X restore 490 215 pd split;
#X f 35;
#X obj 493 137 hsl 162 19 0 1000 0 0 empty empty delay\ time 10 10 0 12 #9f9f9f #ffffff #ffffff 0 1;
#X obj 732 287 *~;
#X obj 768 287 hsl 162 19 0 1 0 0 empty empty volume 10 10 0 12 #dfdfdf #ffffff #000000 0 1;
#N canvas 237 275 450 300 split 0;
#X obj 37 37 inlet~;
#X obj 37 61 outlet~;
#X obj 107 61 outlet~;
#X obj 190 34 inlet~;
#X connect 0 0 1 0;
#X connect 0 0 2 0;
#X connect 3 0 2 0;
#X connect 3 0 1 0;
#X restore 490 799 pd split;
#X f 35;
#X obj 490 871 delwrite~ del1 1000;
#X obj 1010 547 hsl 162 19 0 1 0 0 empty empty mc 10 10 0 12 #606060 #ffffff #ffffff 0 1;
#X obj 1252 547 hsl 162 19 0 1 0 0 empty empty mc 10 10 0 12 #606060 #ffffff #ffffff 0 1;
#N canvas 237 275 450 300 split 0;
#X obj 37 37 inlet~;
#X obj 212 26 inlet~;
#X obj 37 151 outlet~;
#X obj 107 151 outlet~;
#X obj 36 128 +~;
#X obj 105 130 +~;
#X connect 0 0 4 0;
#X connect 0 0 5 0;
#X connect 1 0 4 1;
#X connect 1 0 5 1;
#X connect 4 0 2 0;
#X connect 5 0 3 0;
#X restore 974 475 pd split;
#X f 35;
#X obj 974 287 *~;
#X obj 1010 287 hsl 162 19 0 1 0 0 empty empty volume 10 10 0 12 #dfdfdf #ffffff #000000 0 1;
#N canvas 237 275 450 300 split 0;
#X obj 37 37 inlet~;
#X obj 37 61 outlet~;
#X obj 107 61 outlet~;
#X obj 184 28 inlet~;
#X connect 0 0 1 0;
#X connect 0 0 2 0;
#X connect 3 0 2 0;
#X connect 3 0 1 0;
#X restore 974 215 pd split;
#X f 35;
#X obj 1219 137 hsl 162 19 0 1000 0 0 empty empty delay\ time 10 10 0 12 #9f9f9f #ffffff #ffffff 0 1;
#X obj 1216 287 *~;
#X obj 1252 287 hsl 162 19 0 1 0 0 empty empty volume 10 10 0 12 #dfdfdf #ffffff #000000 0 1;
#N canvas 237 275 450 300 split 0;
#X obj 37 37 inlet~;
#X obj 37 61 outlet~;
#X obj 107 61 outlet~;
#X obj 210 34 inlet~;
#X connect 0 0 1 0;
#X connect 0 0 2 0;
#X connect 3 0 2 0;
#X connect 3 0 1 0;
#X restore 974 799 pd split;
#X f 35;
#X obj 974 871 *~;
#X obj 1010 871 hsl 162 19 0 3 0 0 empty empty volume 10 10 0 12 #dfdfdf #ffffff #000000 0 1;
#X obj 1216 871 delwrite~ del2 1000;
#N canvas 237 275 450 300 split 0;
#X obj 37 37 inlet~;
#X obj 190 34 inlet~;
#X obj 37 191 outlet~;
#X obj 107 191 outlet~;
#X obj 39 139 +~;
#X obj 119 139 +~;
#X connect 0 0 4 0;
#X connect 0 0 5 0;
#X connect 1 0 4 1;
#X connect 1 0 5 1;
#X connect 4 0 2 0;
#X connect 5 0 3 0;
#X restore 490 643 pd split;
#X f 35;
#N canvas 237 275 450 300 split 0;
#X obj 37 37 inlet~;
#X obj 190 34 inlet~;
#X obj 37 171 outlet~;
#X obj 107 171 outlet~;
#X obj 42 126 +~;
#X obj 104 129 +~;
#X connect 0 0 4 0;
#X connect 0 0 5 0;
#X connect 1 0 4 1;
#X connect 1 0 5 1;
#X connect 4 0 2 0;
#X connect 5 0 3 0;
#X restore 974 643 pd split;
#X f 35;
#N canvas 237 275 450 300 split 0;
#X obj 37 37 inlet~;
#X obj 37 61 outlet~;
#X obj 107 61 outlet~;
#X obj 191 37 inlet~;
#X connect 0 0 1 0;
#X connect 0 0 2 0;
#X connect 3 0 2 0;
#X connect 3 0 1 0;
#X restore 490 354 pd split;
#X f 35;
#N canvas 237 275 450 300 split 0;
#X obj 37 37 inlet~;
#X obj 37 61 outlet~;
#X obj 107 61 outlet~;
#X obj 212 26 inlet~;
#X connect 0 0 1 0;
#X connect 0 0 2 0;
#X connect 3 0 2 0;
#X connect 3 0 1 0;
#X restore 974 354 pd split;
#X f 35;
#N canvas 237 275 450 300 split 0;
#X obj 37 37 inlet~;
#X obj 37 101 outlet~;
#X obj 107 101 outlet~;
#X obj 212 26 inlet~;
#X obj 37 61 *~ 0.5;
#X obj 212 50 *~ 0.5;
#X connect 0 0 1 0;
#X connect 0 0 4 0;
#X connect 3 0 2 0;
#X connect 3 0 5 0;
#X connect 4 0 2 0;
#X connect 5 0 1 0;
#X restore 732 895 pd split;
#X f 35;
#X obj 809 958 else/out~;
#X msg 705 963 start;
#X msg 660 963 stop;
#X obj 732 929 else/plate.rev~, f 16;
#X obj 37 874 t b b, f 13;
#X obj 37 850 loadbang;
#X obj 974 725 else/compress~ -30 5 5 5 0 256;
#X obj 490 725 else/compress~ -30 5 5 5 0 256;
#X obj 523 238 ctlin 16;
#X obj 523 262 / 127;
#X obj 765 262 / 127;
#X obj 765 238 ctlin 17;
#X obj 1007 262 / 127;
#X obj 1007 238 ctlin 22;
#X obj 1249 262 / 127;
#X obj 1249 238 ctlin 23;
#X obj 523 523 / 127;
#X obj 765 523 / 127;
#X obj 1007 523 / 127;
#X obj 523 499 ctlin 8;
#X obj 765 499 ctlin 9;
#X obj 1007 499 ctlin 14;
#X obj 1249 523 / 127;
#X obj 1249 499 ctlin 15;
#X obj 490 59 ctlin 18;
#X obj 490 83 / 0.127;
#X obj 1216 113 / 0.127;
#X obj 1216 89 ctlin 21;
#X obj 765 847 / 127;
#X obj 765 823 ctlin 11;
#X obj 1007 823 ctlin 12;
#X obj 1007 847 / 42;
#X obj 37 922 s to_rvb;
#X obj 546 910 r to_rvb;
#X obj 490 547 *~;
#X obj 732 547 *~;
#X obj 974 547 *~;
#X obj 1216 547 *~;
#X obj 490 306 rms;
#X obj 732 306 rms;
#X obj 974 306 rms;
#X obj 1216 306 rms;
#X obj 490 819 rms;
#X obj 1220 819 rms;
#X obj 974 929 else/plate.rev~, f 16;
#X obj 974 611 snake~ in 8, f 28;
#X obj 974 588 snake~ out 4;
#X obj 741 621 snake~ in 4;
#X msg 37 898 size 0.7;
#X obj 741 597 snake~ out 8, f 26;
#X obj 490 746 expr~ tanh($v1*2)/2;
#X obj 490 770 hip~ 70;
#X obj 974 770 hip~ 170;
#X obj 431 359 r 1e;
#X obj 25 487 s 1e;
#X msg 25 463 pd~ stop;
#X obj 25 517 s 2e;
#X obj 25 547 s 1d;
#X obj 25 577 s 2d;
#X msg 24 221 pd~ start -nogui -send pd\ dsp\ 1 sub/pd~-sub1e.pd;
#X msg 24 281 pd~ start -nogui -send pd\ dsp\ 1 sub/pd~-sub1d.pd;
#X msg 24 341 pd~ start -nogui -send pd\ dsp\ 1 sub/pd~-sub2e.pd;
#X msg 24 401 pd~ start -nogui -send pd\ dsp\ 1 sub/pd~-sub2d.pd;
#X obj 915 359 r 2e;
#X obj 431 674 r 1d;
#X obj 915 674 r 2d;
#X obj 490 404 snake~ in 4, f 29;
#X obj 490 667 snake~ out 4, f 32;
#X obj 974 667 snake~ out 8, f 32;
#X obj 974 404 snake~ in 8, f 29;
#X text 61 367 CedrikGong;
#X text 62 246 AlexTenorSaxEtu;
#X obj 24 186 bng 19 250 50 0 empty empty empty 0 -10 0 12 #fcfcfc #000000 #000000;
#X obj 22 16 tgl 19 0 empty empty empty 0 -10 0 12 #fcfcfc #000000 #000000 0 1;
#X msg 22 40 \; pd dsp \$1;
#X obj 24 245 s 2e;
#X obj 24 305 s 2d;
#X obj 24 365 s 1e;
#X obj 24 425 s 1d;
#X obj 754 698 env~;
#X floatatom 754 722 5 0 0 0 - - - 0;
#X obj 490 693 pd~ -ninsig 4 -noutsig 1 -fifo 1;
#X obj 490 378 pd~ -ninsig 1 -noutsig 4 -fifo 1;
#X obj 974 378 pd~ -ninsig 1 -noutsig 8 -fifo 1;
#X obj 974 693 pd~ -ninsig 8 -noutsig 1 -fifo 1;
#X obj 1087 574 sig~;
#X msg 1146 578 0;
#X obj 974 746 expr~ tanh($v1*4)/4;
#X obj 1505 291 ctlin 60;
#X obj 1505 315 sel 127;
#X obj 549 82 r set_delay1;
#X obj 1274 111 r set_delay2;
#X msg 1505 339 250;
#X msg 1550 339 500;
#X obj 1505 363 s set_delay1;
#X obj 1550 393 s set_delay2;
#X obj 1443 481 sel 127;
#X msg 1443 505 250;
#X obj 1443 529 s set_delay1;
#X obj 1488 559 s set_delay2;
#X msg 1488 505 260;
#X obj 1443 457 ctlin 61;
#X obj 703 149 *~;
#X obj 739 149 hsl 162 19 0 1 0 0 empty empty volume 10 10 0 12 #dfdfdf #ffffff #000000 0 1;
#X obj 1005 149 *~;
#X obj 1041 149 hsl 162 19 0 1 0 0 empty empty volume 10 10 0 12 #dfdfdf #ffffff #000000 0 1;
#X obj 736 124 / 127;
#X obj 1038 124 / 127;
#X obj 703 168 rms;
#X obj 1005 168 rms;
#X obj 736 100 ctlin 10;
#X obj 1038 100 ctlin 13;
#X obj 267 592 hsl 162 19 0 1 0 0 empty empty volume 10 10 0 12 #dfdfdf #ffffff #000000 0 1;
#X obj 264 567 / 127;
#X obj 231 611 rms;
#X obj 264 543 ctlin 19;
#X obj 231 590 *~;
#X obj 830 774 *~ 1;
#X obj 235 700 hsl 162 19 0 1000 0 0 empty empty delay\ time 10 10 0 12 #9f9f9f #ffffff #ffffff 0 1;
#X floatatom 262 723 5 0 0 0 - - - 0;
#X obj 406 38 tgl 19 0 empty empty empty 0 -10 0 12 #fcfcfc #000000 #000000 0 1;
#X obj 406 157 snapshot~;
#X floatatom 406 181 5 0 0 0 - - - 0;
#X obj 406 85 osc~ 0.5;
#X obj 490 161 delread4~ del1, f 28;
#X obj 232 757 delread4~ del3 1000;
#X obj 1216 161 delread4~ del2, f 28;
#X obj 406 62 metro 250;
#X obj 232 676 delwrite~ del3 2000;
#X obj 490 107 * 2;
#X obj 406 109 *~ 500;
#X obj 406 133 +~ 1001;
#X msg 609 57 clear;
#X obj 610 36 r clear;
#X msg 1264 32 clear;
#X obj 1265 11 r clear;
#X msg 162 657 clear;
#X obj 163 636 r clear;
#X obj 1637 294 bng 19 250 50 0 empty empty empty 0 -10 0 12 #fcfcfc #000000 #000000;
#X obj 1637 318 s clear;
#X text 1504 266 SET button;
#X obj 229 28 *~ 1;
#X obj 705 27 *~ 1;
#X obj 1015 27 *~ 1;
#X obj 1443 661 sel 127;
#X obj 1443 709 s set_delay1;
#X obj 1488 739 s set_delay2;
#X obj 1443 637 ctlin 62;
#X msg 1443 685 333;
#X msg 1488 685 444;
#X obj 1443 831 sel 127;
#X obj 1443 939 s set_delay1;
#X obj 1488 969 s set_delay2;
#X obj 1648 365 ctlin;
#X floatatom 1666 390 5 0 0 0 - - - 0;
#X obj 1443 807 ctlin 46;
#X obj 1443 855 random 1000;
#X obj 1443 879 + 100;
#X obj 1487 909 + 100;
#X obj 1487 885 random 1000;
#X text 1444 786 Cycle button = RANDOM;
#X text 1444 436 LEFT MARKER button;
#X text 1444 616 RIGHT MARKER button;
#X obj 1583 481 sel 127;
#X obj 1583 529 s set_delay1;
#X obj 1628 559 s set_delay2;
#X obj 1583 661 sel 127;
#X obj 1583 709 s set_delay1;
#X obj 1628 739 s set_delay2;
#X text 1584 436 LEFT TRACK;
#X text 1584 616 RIGHT TRACK;
#X obj 1583 457 ctlin 58;
#X obj 1583 637 ctlin 59;
#X msg 1583 505 1000;
#X msg 1583 685 140;
#X msg 1628 505 900;
#X msg 1628 685 900;
#X msg 125 898 wet 0.3;
#X obj 767 1012 else/rec.file~ testerafdfa.wav 2;
#X obj 861 33 adc~;
#N canvas 294 163 834 462 counter 0;
#X floatatom 110 169 5 0 0 0 - - - 36;
#X floatatom 110 224 5 0 0 0 - - - 36;
#X obj 189 140 bng 19 250 50 0 empty empty reset 0 -10 0 12 #fcfcfc #000000 #000000;
#X obj 110 140 tgl 19 0 empty empty on/off 0 -10 0 12 #fcfcfc #000000 #000000 0 1;
#X msg 454 172 1;
#X obj 454 196 + 1;
#X floatatom 454 221 5 0 0 0 - - - 0;
#X msg 354 202 0;
#X floatatom 454 268 5 0 0 0 - - - 0;
#X obj 387 246 div 60;
#X obj 454 244 mod 60;
#X floatatom 387 270 5 0 0 0 - - - 0;
#X obj 439 9 metro 1000;
#X floatatom 270 279 2 0 0 1 Sect - - 36;
#X obj 561 219 route 60 120 260 310 380 440 500;
#X msg 560 247 1;
#X msg 595 247 2;
#X msg 629 247 3;
#X msg 667 249 4;
#X msg 704 250 5;
#X msg 742 249 6;
#X msg 778 250 7;
#X connect 2 0 7 0;
#X connect 3 0 12 0;
#X connect 4 0 5 0;
#X connect 5 0 6 0;
#X connect 6 0 5 1;
#X connect 6 0 10 0;
#X connect 6 0 9 0;
#X connect 6 0 14 0;
#X connect 7 0 6 0;
#X connect 7 0 5 1;
#X connect 7 0 13 0;
#X connect 8 0 1 0;
#X connect 9 0 11 0;
#X connect 10 0 8 0;
#X connect 11 0 0 0;
#X connect 12 0 4 0;
#X connect 14 0 15 0;
#X connect 14 1 16 0;
#X connect 14 2 17 0;
#X connect 14 3 18 0;
#X connect 14 4 19 0;
#X connect 14 5 20 0;
#X connect 14 6 21 0;
#X connect 15 0 13 0;
#X connect 16 0 13 0;
#X connect 17 0 13 0;
#X connect 18 0 13 0;
#X connect 19 0 13 0;
#X connect 20 0 13 0;
#X connect 21 0 13 0;
#X coords 0 -1 1 1 150 250 1 100 100;
#X restore 1462 -3 pd counter;
#X obj 860 82 env~;
#X floatatom 860 106 5 0 0 0 - - - 0;
#X obj 1106 -31 loadbang;
#X msg 1106 -7 1;
#X obj 1106 17 metro 60000;
#X msg 1106 65 \$1 10000;
#X obj 1106 89 line~;
#X obj 861 58 delwrite~ in 2000;
#X obj 861 8 delread4~ in 1;
#X obj 1106 41 random 2000;
#X floatatom 1164 95 5 0 0 0 - - - 0;
#X connect 0 0 65 1;
#X connect 1 0 66 1;
#X connect 2 0 65 0;
#X connect 2 1 66 0;
#X connect 3 0 30 0;
#X connect 4 0 3 1;
#X connect 5 0 28 0;
#X connect 5 0 69 0;
#X connect 6 0 5 1;
#X connect 7 0 5 0;
#X connect 7 1 9 0;
#X connect 8 0 155 0;
#X connect 9 0 29 0;
#X connect 9 0 70 0;
#X connect 10 0 9 1;
#X connect 11 0 12 0;
#X connect 11 0 73 0;
#X connect 11 1 3 0;
#X connect 13 0 67 1;
#X connect 14 0 68 1;
#X connect 15 0 67 0;
#X connect 15 1 68 0;
#X connect 16 0 28 1;
#X connect 16 0 71 0;
#X connect 17 0 16 1;
#X connect 18 0 16 0;
#X connect 18 1 20 0;
#X connect 19 0 157 0;
#X connect 20 0 29 1;
#X connect 20 0 72 0;
#X connect 21 0 20 1;
#X connect 22 0 23 0;
#X connect 22 1 25 0;
#X connect 22 1 74 0;
#X connect 23 0 30 1;
#X connect 24 0 23 1;
#X connect 26 0 98 0;
#X connect 27 0 99 0;
#X connect 28 0 113 0;
#X connect 29 0 114 0;
#X connect 30 0 34 0;
#X connect 30 1 75 0;
#X connect 32 0 209 0;
#X connect 33 0 209 0;
#X connect 34 0 31 0;
#X connect 34 0 209 0;
#X connect 35 0 79 0;
#X connect 35 1 208 0;
#X connect 36 0 35 0;
#X connect 37 0 118 0;
#X connect 38 0 81 0;
#X connect 39 0 40 0;
#X connect 40 0 6 0;
#X connect 41 0 10 0;
#X connect 42 0 41 0;
#X connect 43 0 17 0;
#X connect 44 0 43 0;
#X connect 45 0 21 0;
#X connect 46 0 45 0;
#X connect 47 0 0 0;
#X connect 48 0 1 0;
#X connect 49 0 13 0;
#X connect 50 0 47 0;
#X connect 51 0 48 0;
#X connect 52 0 49 0;
#X connect 53 0 14 0;
#X connect 54 0 53 0;
#X connect 55 0 56 0;
#X connect 56 0 160 0;
#X connect 57 0 19 0;
#X connect 58 0 57 0;
#X connect 59 0 4 0;
#X connect 60 0 59 0;
#X connect 61 0 62 0;
#X connect 62 0 24 0;
#X connect 64 0 34 0;
#X connect 64 0 75 0;
#X connect 65 0 26 0;
#X connect 66 0 77 0;
#X connect 67 0 80 0;
#X connect 68 0 27 1;
#X connect 75 0 31 1;
#X connect 75 0 209 1;
#X connect 76 0 27 0;
#X connect 77 0 76 0;
#X connect 77 1 76 1;
#X connect 77 2 76 2;
#X connect 77 3 76 5;
#X connect 78 0 26 1;
#X connect 79 0 63 0;
#X connect 80 0 78 0;
#X connect 80 1 78 1;
#X connect 80 2 78 2;
#X connect 80 6 78 3;
#X connect 81 0 82 0;
#X connect 82 0 11 0;
#X connect 83 0 22 0;
#X connect 84 0 113 0;
#X connect 86 0 85 0;
#X connect 86 0 87 0;
#X connect 86 0 89 0;
#X connect 86 0 88 0;
#X connect 90 0 106 0;
#X connect 91 0 107 0;
#X connect 92 0 108 0;
#X connect 93 0 109 0;
#X connect 94 0 114 0;
#X connect 95 0 112 0;
#X connect 96 0 115 0;
#X connect 97 0 2 0;
#X connect 98 0 112 0;
#X connect 98 1 112 1;
#X connect 98 2 112 2;
#X connect 98 3 112 3;
#X connect 99 0 115 0;
#X connect 99 1 115 1;
#X connect 99 2 115 2;
#X connect 99 3 115 3;
#X connect 99 4 115 4;
#X connect 99 5 115 5;
#X connect 99 6 115 6;
#X connect 99 7 115 7;
#X connect 100 0 15 0;
#X connect 103 0 93 0;
#X connect 103 0 92 0;
#X connect 103 0 91 0;
#X connect 103 0 90 0;
#X connect 104 0 105 0;
#X connect 110 0 111 0;
#X connect 112 1 38 0;
#X connect 112 1 110 0;
#X connect 113 1 97 0;
#X connect 113 2 97 1;
#X connect 113 3 97 2;
#X connect 113 4 97 3;
#X connect 114 1 100 0;
#X connect 114 2 100 1;
#X connect 114 3 100 2;
#X connect 114 4 100 3;
#X connect 114 5 100 4;
#X connect 114 6 100 5;
#X connect 114 7 100 6;
#X connect 114 8 100 7;
#X connect 115 1 37 0;
#X connect 116 0 76 4;
#X connect 116 0 76 6;
#X connect 116 0 76 7;
#X connect 116 0 76 3;
#X connect 117 0 116 0;
#X connect 118 0 83 0;
#X connect 119 0 120 0;
#X connect 120 0 123 0;
#X connect 120 0 124 0;
#X connect 121 0 8 0;
#X connect 122 0 19 0;
#X connect 123 0 125 0;
#X connect 124 0 126 0;
#X connect 127 0 128 0;
#X connect 127 0 131 0;
#X connect 128 0 129 0;
#X connect 131 0 130 0;
#X connect 132 0 127 0;
#X connect 133 0 139 0;
#X connect 133 0 28 1;
#X connect 134 0 133 1;
#X connect 135 0 140 0;
#X connect 135 0 29 0;
#X connect 136 0 135 1;
#X connect 137 0 134 0;
#X connect 138 0 136 0;
#X connect 141 0 137 0;
#X connect 142 0 138 0;
#X connect 143 0 147 1;
#X connect 144 0 143 0;
#X connect 146 0 144 0;
#X connect 147 0 159 0;
#X connect 147 0 145 0;
#X connect 148 0 31 0;
#X connect 148 0 31 1;
#X connect 149 0 150 0;
#X connect 149 0 156 0;
#X connect 151 0 158 0;
#X connect 152 0 153 0;
#X connect 153 0 8 0;
#X connect 154 0 161 0;
#X connect 155 0 7 0;
#X connect 156 0 148 0;
#X connect 157 0 18 1;
#X connect 158 0 152 0;
#X connect 160 0 8 0;
#X connect 161 0 162 0;
#X connect 162 0 152 0;
#X connect 163 0 155 0;
#X connect 164 0 163 0;
#X connect 165 0 157 0;
#X connect 166 0 165 0;
#X connect 167 0 159 0;
#X connect 168 0 167 0;
#X connect 169 0 170 0;
#X connect 172 0 147 0;
#X connect 173 0 133 0;
#X connect 174 0 135 0;
#X connect 175 0 179 0;
#X connect 175 0 180 0;
#X connect 178 0 175 0;
#X connect 179 0 176 0;
#X connect 180 0 177 0;
#X connect 181 0 187 0;
#X connect 181 0 190 0;
#X connect 184 1 185 0;
#X connect 186 0 181 0;
#X connect 187 0 188 0;
#X connect 188 0 182 0;
#X connect 189 0 183 0;
#X connect 190 0 189 0;
#X connect 194 0 204 0;
#X connect 194 0 206 0;
#X connect 197 0 205 0;
#X connect 197 0 207 0;
#X connect 202 0 194 0;
#X connect 203 0 197 0;
#X connect 204 0 195 0;
#X connect 205 0 198 0;
#X connect 206 0 196 0;
#X connect 207 0 199 0;
#X connect 208 0 63 0;
#X connect 210 0 212 0;
#X connect 210 0 219 0;
#X connect 210 1 212 0;
#X connect 210 1 219 0;
#X connect 212 0 213 0;
#X connect 214 0 215 0;
#X connect 215 0 216 0;
#X connect 216 0 221 0;
#X connect 217 0 218 0;
#X connect 218 0 220 0;
#X connect 220 0 172 0;
#X connect 220 0 173 0;
#X connect 220 0 174 0;
#X connect 221 0 217 0;
#X connect 221 0 222 0;
