#N canvas 864 38 864 1051 12;
#X obj 101 101 cnv 10 58 18 empty \$0-cnv empty 20 12 0 12 #000000 #000000 0;
#X obj 323 560 s \$0-cnv;
#X symbolatom 320 428 9 0 0 0 - - - 0;
#N canvas 1051 226 390 482 label 0;
#X obj 102 80 vsl 15 128 0 255 0 0 empty empty empty 0 -9 0 10 #0800fc #fcfcfc #000000 0 1;
#X obj 109 225 t b f;
#X obj 81 80 vsl 15 128 0 255 0 0 empty empty empty 0 -9 0 10 #00fc00 #000000 #000000 0 1;
#X obj 61 80 vsl 15 128 0 255 0 0 empty empty empty 0 -9 0 10 #fc0000 #000000 #000000 0 1;
#X obj 81 250 t b f;
#X obj 221 257 makefilename %02x;
#X obj 141 284 makefilename %02x;
#X obj 61 321 makefilename %02x;
#X obj 61 416 outlet;
#X text 52 56 background;
#X msg 61 380 symbol #\$1\$2\$3;
#X obj 176 59 loadbang;
#X obj 176 176 route set;
#X obj 61 351 pack symbol symbol symbol;
#X obj 277 71 cnv 15 100 60 empty empty empty 20 12 0 14 #e0e0e0 #404040 0;
#X msg 176 91 set 0;
#X obj 73 17 inlet;
#X connect 0 0 1 0;
#X connect 1 0 2 0;
#X connect 1 1 5 0;
#X connect 2 0 4 0;
#X connect 3 0 7 0;
#X connect 4 0 3 0;
#X connect 4 1 6 0;
#X connect 5 0 13 2;
#X connect 6 0 13 1;
#X connect 7 0 13 0;
#X connect 10 0 8 0;
#X connect 11 0 15 0;
#X connect 12 0 5 0;
#X connect 12 0 6 0;
#X connect 13 0 10 0;
#X connect 15 0 3 0;
#X connect 15 0 2 0;
#X connect 15 0 0 0;
#X connect 15 0 12 0;
#X connect 16 0 3 0;
#X coords 0 -1 1 1 80 170 2 50 50;
#X restore 320 247 pd label;
#X obj 320 497 pack symbol symbol symbol;
#X msg 320 526 color \$1 \$2 \$3;
#X obj 302 75 inlet~;
#X obj 302 99 env~;
#X obj 302 123 clip 0 100;
#X obj 302 147 * 2.55;
#X connect 2 0 4 0;
#X connect 3 0 2 0;
#X connect 4 0 5 0;
#X connect 5 0 1 0;
#X connect 6 0 7 0;
#X connect 7 0 8 0;
#X connect 8 0 9 0;
#X connect 9 0 3 0;
#X coords 0 -1 1 1 60 20 1 100 100;
