#N canvas 88 82 864 511 12;
#X obj 112 111 adc~ 1;
#X obj 112 174 dac~ 1 2 3 4 5 6 7 8, f 71;
#X obj 112 140 nn~ -g ../m/Beneath_Within_CedrikGong_v0_bes500k_fid_0.999_streaming_z8 encode, f 81;
#X connect 0 0 2 0;
#X connect 2 0 1 0;
#X connect 2 1 1 1;
#X connect 2 2 1 2;
#X connect 2 3 1 3;
#X connect 2 4 1 4;
#X connect 2 5 1 5;
#X connect 2 6 1 6;
#X connect 2 7 1 7;
